<svg width="4" height="4" viewBox="0 0 4 4" fill="none" xmlns="http://www.w3.org/2000/svg">
<g clip-path="url(#clip0_7725_7510)">
<path d="M0.571105 0.0976141L2 1.52654L3.42889 0.0976141C3.54806 -0.0215577 3.7369 -0.0326566 3.87797 0.0775539L3.90238 0.0997866C4.03254 0.229939 4.03254 0.440957 3.90238 0.571111L2.47346 2L3.90238 3.42889C4.02156 3.54806 4.03265 3.7369 3.92244 3.87797L3.90022 3.90239C3.77006 4.03254 3.55904 4.03254 3.42888 3.90238L2 2.47346L0.571105 3.90239C0.451933 4.02156 0.263098 4.03266 0.122029 3.92245L0.0976147 3.90021C-0.0325375 3.77006 -0.032539 3.55904 0.0976147 3.42889L1.52654 2L0.0976147 0.57111C-0.0215573 0.451938 -0.032656 0.263096 0.0775545 0.122028L0.0997814 0.0976141C0.229934 -0.032538 0.440953 -0.032538 0.571105 0.0976141ZM0.338114 3.83331C0.337226 3.83333 0.336337 3.83333 0.335448 3.83333L0.338114 3.83331ZM0.360239 3.83149L0.352935 3.83242C0.355356 3.83217 0.357802 3.83185 0.360239 3.83149ZM0.310882 3.83152L0.313852 3.83194C0.312844 3.8318 0.311888 3.83167 0.310882 3.83152ZM0.289936 3.82703L0.292541 3.82774C0.291642 3.8275 0.290832 3.82728 0.289936 3.82703ZM0.381398 3.8269L0.372415 3.8292C0.375417 3.82852 0.378417 3.82775 0.381398 3.8269ZM0.400258 3.82026L0.39333 3.823C0.395639 3.82215 0.397953 3.82123 0.400258 3.82026ZM0.270609 3.82025C0.271006 3.82041 0.271429 3.82059 0.270609 3.82025V3.82025ZM0.251057 3.81043L0.233337 3.79839C0.240738 3.80415 0.248504 3.80919 0.25656 3.81353L0.251057 3.81043ZM0.419758 3.81047L0.414397 3.81349C0.416157 3.81254 0.417963 3.81153 0.419758 3.81047ZM3.81353 3.74343L3.81042 3.74894L3.79839 3.76667C3.80414 3.75927 3.80919 3.75149 3.81353 3.74343ZM3.82275 3.7231L3.82025 3.72939C3.82114 3.72729 3.82197 3.7252 3.82275 3.7231ZM3.82913 3.70184L3.82703 3.71006C3.82778 3.70739 3.8285 3.70462 3.82913 3.70184ZM3.83241 3.68215L3.83152 3.68912C3.83186 3.68683 3.83216 3.68449 3.83241 3.68215ZM3.66455 0.333275L2 1.99787L0.335448 0.333275L0.333271 0.335448L1.99787 2L0.333271 3.66455L0.335448 3.66672L2 2.00213L3.66455 3.66672L3.66673 3.66455L2.00213 2L3.66673 0.335448L3.66455 0.333275ZM3.83331 3.66189L3.83332 3.66672C3.83334 3.66512 3.83334 3.6635 3.83331 3.66189ZM3.83149 3.63977L3.83242 3.64707C3.83216 3.64464 3.83186 3.6422 3.83149 3.63977ZM3.8269 3.6186L3.8292 3.62758C3.82852 3.62458 3.82776 3.62158 3.8269 3.6186ZM3.82026 3.59974L3.823 3.60667C3.82214 3.60436 3.82123 3.60204 3.82026 3.59974ZM3.81047 3.58024L3.81349 3.5856C3.81254 3.58384 3.81153 3.58203 3.81047 3.58024ZM0.186512 0.414396L0.189025 0.418903C0.188148 0.41739 0.187338 0.415931 0.186512 0.414396ZM0.177001 0.393326L0.179239 0.399068C0.17845 0.397156 0.177716 0.395261 0.177001 0.393326ZM0.170796 0.372419L0.172261 0.378351C0.171737 0.376377 0.171246 0.374408 0.170796 0.372419ZM0.16751 0.352269L0.168059 0.357047C0.167852 0.355448 0.167672 0.353872 0.16751 0.352269ZM0.166737 0.330612L0.166666 0.335448C0.166666 0.333826 0.16669 0.332234 0.166737 0.330612ZM0.168477 0.310879L0.168059 0.31385C0.16819 0.312842 0.168327 0.311884 0.168477 0.310879ZM0.172973 0.289942L0.172261 0.292545C0.172499 0.291647 0.172719 0.290837 0.172973 0.289942ZM0.179748 0.270609C0.179403 0.271429 0.17958 0.271006 0.179748 0.270609V0.270609ZM0.189574 0.25106L0.201608 0.233333C0.195854 0.240734 0.190805 0.248509 0.186472 0.256566L0.189574 0.25106ZM0.414326 0.186474L0.41984 0.189572L0.43756 0.201605C0.430159 0.195851 0.422382 0.190807 0.414326 0.186474ZM3.5856 0.186509L3.58109 0.189027C3.58261 0.18815 3.58407 0.187335 3.5856 0.186509ZM0.256499 0.186509L0.251993 0.189027C0.253506 0.18815 0.254965 0.187335 0.256499 0.186509ZM3.74344 0.186474L3.74894 0.189572L3.76666 0.201605C3.75926 0.195851 3.75149 0.190807 3.74344 0.186474ZM0.276905 0.177248L0.271829 0.179244C0.27351 0.178551 0.275208 0.177884 0.276905 0.177248ZM0.3933 0.176989L0.400288 0.179753C0.397958 0.17877 0.395637 0.177853 0.3933 0.176989ZM3.60667 0.177L3.60093 0.179244C3.60284 0.178455 3.60473 0.177715 3.60667 0.177ZM3.7231 0.177251L3.72939 0.179753C3.72729 0.178868 3.7252 0.178038 3.7231 0.177251ZM0.298207 0.170859L0.292541 0.172257C0.294405 0.171762 0.296329 0.171288 0.298207 0.170859ZM0.372405 0.170795L0.381428 0.173104C0.378425 0.172245 0.37542 0.171478 0.372405 0.170795ZM3.62758 0.170798L3.62165 0.172257C3.62363 0.171733 3.62559 0.171248 3.62758 0.170798ZM3.70184 0.17087L3.71006 0.17297C3.7074 0.172215 3.70462 0.171506 3.70184 0.17087ZM0.318562 0.167518L0.313852 0.168064C0.315408 0.167862 0.317002 0.167677 0.318562 0.167518ZM0.352243 0.16751L0.360218 0.168508C0.357573 0.168113 0.354913 0.167779 0.352243 0.16751ZM3.64773 0.167513L3.64295 0.168064C3.64455 0.167856 3.64613 0.167674 3.64773 0.167513ZM3.68148 0.167523L3.68912 0.168477C3.68661 0.168104 3.68405 0.167784 3.68148 0.167523ZM3.65972 0.166736L3.66941 0.166737C3.66618 0.166643 3.66295 0.166643 3.65972 0.166736ZM0.330586 0.166737L0.34028 0.166736C0.337049 0.166643 0.333817 0.166643 0.330586 0.166737Z" fill="#E50909"/>
</g>
<defs>
<clipPath id="clip0_7725_7510">
<rect width="4" height="4" fill="white"/>
</clipPath>
</defs>
</svg>
