<svg width="37" height="24" viewBox="0 0 37 24" fill="none" xmlns="http://www.w3.org/2000/svg">
<path d="M20.6301 0.806167C21.3557 1.42212 21.7627 2.20164 21.9513 3.13354C22.0188 4.03217 21.8882 4.79471 21.311 5.50974C21.2785 5.5524 21.2459 5.59505 21.2124 5.63901C20.9187 5.97747 20.5573 6.16751 20.1722 6.383C19.4967 6.76605 19.1946 7.10931 18.9785 7.86756C18.9498 7.9883 18.9219 8.10924 18.8961 8.23065C18.9766 8.22724 19.0571 8.22383 19.14 8.22031C20.0014 8.19461 20.7085 8.27314 21.4005 8.84194C22.0452 9.45712 22.275 10.1218 22.2989 10.9975C22.2988 11.0563 22.2988 11.1151 22.2987 11.1757C22.3046 11.5881 22.3666 11.9454 22.6282 12.2753C22.943 12.5124 23.2237 12.6331 23.6029 12.7338C23.655 12.7479 23.7071 12.762 23.7607 12.7765C23.9332 12.8228 24.1059 12.868 24.2787 12.9133C24.4015 12.946 24.5243 12.9789 24.6471 13.0118C24.9084 13.0818 25.1698 13.1511 25.4314 13.2201C25.8401 13.328 26.2485 13.437 26.6568 13.5462C27.4602 13.7609 28.2639 13.9742 29.0678 14.1872C29.2912 14.2465 29.5146 14.3057 29.7381 14.3649C29.7899 14.3786 29.8417 14.3924 29.8951 14.4065C30.323 14.52 30.7507 14.634 31.1784 14.7482C31.4307 14.8153 31.6831 14.8816 31.9356 14.9479C33.6097 15.391 34.9913 15.9482 35.9619 17.4792C36.5232 18.499 36.6317 19.5933 36.6281 20.7397C36.6279 20.8937 36.6296 21.0475 36.6315 21.2014C36.6353 22.0322 36.5506 22.7372 35.9696 23.3657C35.5278 23.7945 35.0893 23.9328 34.4874 24C33.8541 23.9704 33.3009 23.6883 32.873 23.2324C32.7522 23.014 32.6315 22.7956 32.5071 22.5706C18.4527 22.5342 18.4527 22.5342 4.11437 22.4971C4.06607 22.6427 4.01777 22.7883 3.96801 22.9383C3.57926 23.5173 3.10403 23.8227 2.43129 23.9678C1.79461 24.0112 1.25245 23.8584 0.748221 23.4531C0.153013 22.8652 0.0176165 22.2412 0.00415789 21.4282C0.00328679 21.2437 0.00282248 21.0591 0.00272865 20.8746C0.00138445 20.7385 0.00138445 20.7385 1.30955e-05 20.5996C-0.00249294 18.9954 0.35419 17.6151 1.49028 16.4471C2.3022 15.668 3.25909 15.3346 4.32704 15.0528C4.434 15.024 4.54094 14.9951 4.64787 14.9662C4.87575 14.9047 5.10374 14.8437 5.33182 14.783C5.69145 14.6873 6.05078 14.5905 6.41009 14.4936C7.45849 14.211 8.50756 13.931 9.55702 13.6525C10.014 13.5312 10.4708 13.4094 10.9275 13.2873C11.2489 13.2015 11.5704 13.1165 11.8921 13.0321C12.0913 12.9796 12.2904 12.9265 12.4895 12.8732C12.6246 12.8372 12.7599 12.8021 12.8953 12.767C13.5749 12.5897 13.5749 12.5897 14.0989 12.1421C14.2866 11.754 14.3231 11.4256 14.3226 10.9975C14.3465 10.1218 14.5763 9.45712 15.221 8.84194C15.9864 8.21276 16.7829 8.19068 17.7253 8.23065C17.7219 8.18164 17.7185 8.13263 17.715 8.08214C17.6836 7.27682 17.9146 6.62061 18.4571 6.02451C18.8538 5.60349 19.3209 5.34072 19.8277 5.07512C20.2165 4.82536 20.4732 4.50047 20.6201 4.05851C20.7341 3.47074 20.5633 2.93412 20.2865 2.42113C20.2488 2.3453 20.2111 2.26946 20.1722 2.19133C19.77 1.71468 19.2157 1.40884 18.6034 1.31806C17.9361 1.26398 17.3547 1.42814 16.8338 1.85753C16.2203 2.42232 16.0411 2.94056 15.9488 3.76436C15.8842 4.0098 15.8025 4.10619 15.6032 4.25959C15.4022 4.31323 15.221 4.30027 15.0178 4.25959C14.7877 4.11141 14.7372 4.00726 14.661 3.74482C14.5832 2.77499 15.0147 1.8597 15.626 1.13422C16.9836 -0.273882 19.1008 -0.356498 20.6301 0.806167ZM15.8639 10.0369C15.8119 10.1008 15.8119 10.1008 15.759 10.1659C15.5658 10.4554 15.5854 10.7727 15.5712 11.1078C15.5256 11.9541 15.42 12.6379 14.8242 13.2893C14.1058 13.9028 12.9206 14.0681 12.0235 14.3042C11.9057 14.3354 11.788 14.3667 11.6702 14.3981C11.4218 14.4641 11.1734 14.53 10.9249 14.5956C10.5365 14.6983 10.1482 14.8018 9.76005 14.9053C8.74282 15.1765 7.72556 15.4475 6.70697 15.7134C6.30935 15.8173 5.912 15.9221 5.51475 16.0272C5.35772 16.0686 5.20058 16.1094 5.04331 16.1498C3.75557 16.4806 2.59177 16.8637 1.81958 18.0224C1.30089 18.9272 1.24641 19.7874 1.24217 20.8057C1.24066 20.8963 1.23915 20.9869 1.23759 21.0803C1.23546 21.5796 1.25107 21.9757 1.47999 22.4235C1.73181 22.6479 1.91901 22.7164 2.2575 22.7223C2.54966 22.6298 2.67649 22.5114 2.87036 22.2764C2.97756 22.061 2.95565 21.8665 2.95897 21.6261C2.96103 21.5227 2.96312 21.4193 2.96526 21.3159C2.96826 21.1536 2.97096 20.9913 2.97291 20.829C2.98331 20.0311 2.9958 19.2425 3.52895 18.5995C3.94607 18.2484 4.45103 18.1485 4.96734 18.0095C5.07066 17.9811 5.17396 17.9526 5.27724 17.924C5.56095 17.8459 5.84496 17.7689 6.12908 17.6923C6.31151 17.643 6.49388 17.5937 6.67625 17.5442C7.54338 17.3094 8.41121 17.0773 9.2792 16.8457C9.86085 16.6905 10.4424 16.5349 11.024 16.3794C11.1687 16.3407 11.3133 16.3021 11.458 16.2634C12.328 16.0309 13.1977 15.7976 14.0669 15.562C14.2154 15.5218 14.3638 15.4816 14.5123 15.4414C15.0462 15.2968 15.0462 15.2968 15.5798 15.1517C15.8127 15.0882 16.0457 15.0251 16.2786 14.962C16.3778 14.9348 16.3778 14.9348 16.4789 14.907C17.0801 14.7449 17.6533 14.6871 18.2741 14.6836C18.3394 14.6821 18.4047 14.6806 18.472 14.679C19.4982 14.6732 20.5029 14.9898 21.4862 15.2573C21.6094 15.2905 21.7326 15.3237 21.8559 15.3569C22.1866 15.446 22.5171 15.5355 22.8477 15.6252C23.2655 15.7385 23.6835 15.8514 24.1014 15.9644C24.1721 15.9835 24.2428 16.0026 24.3156 16.0223C24.3867 16.0415 24.4578 16.0608 24.531 16.0806C24.749 16.1395 24.967 16.1985 25.185 16.2575C26.1305 16.5134 27.0768 16.766 28.0238 17.0166C28.4381 17.1264 28.8524 17.2367 29.2666 17.347C29.5967 17.4349 29.927 17.5224 30.2574 17.6091C30.5672 17.6904 30.8768 17.7727 31.1862 17.8556C31.2992 17.8857 31.4123 17.9155 31.5255 17.9448C32.7944 18.2747 32.7944 18.2747 33.2246 18.7435C33.2633 18.811 33.2633 18.811 33.3029 18.8799C33.3299 18.9244 33.3569 18.9688 33.3846 19.0146C33.5724 19.4556 33.6156 19.8547 33.6196 20.3303C33.6201 20.3808 33.6206 20.4312 33.6211 20.4833C33.6226 20.6947 33.6235 20.906 33.6216 21.1174C33.5945 21.8303 33.5945 21.8303 33.8849 22.4548C34.0524 22.6177 34.1404 22.6517 34.3731 22.7269C34.7305 22.714 34.9558 22.6179 35.2009 22.3546C35.4487 21.9221 35.3745 21.3984 35.3747 20.916C35.3756 20.8265 35.3765 20.737 35.3774 20.6448C35.3795 19.3823 35.1611 18.3968 34.3091 17.4505C33.3836 16.609 32.2979 16.3528 31.1179 16.0412C30.967 16.0009 30.8161 15.9605 30.6652 15.92C30.2681 15.8136 29.8707 15.708 29.4733 15.6025C29.0797 15.4979 28.6863 15.3928 28.2928 15.2877C28.1773 15.2569 28.1773 15.2569 28.0594 15.2254C27.298 15.022 26.5366 14.8183 25.7754 14.614C25.6289 14.5747 25.4823 14.5354 25.3357 14.4961C24.9201 14.3846 24.5047 14.2725 24.0896 14.1593C23.964 14.1252 23.8384 14.0913 23.7127 14.0576C23.5404 14.0114 23.3684 13.9643 23.1964 13.9171C23.1471 13.9041 23.0977 13.891 23.0469 13.8776C22.2701 13.6613 21.7563 13.3225 21.3353 12.6303C21.0848 12.0958 21.0665 11.5701 21.0564 10.9909C21.0418 10.5697 20.9685 10.2583 20.6781 9.93467C20.6364 9.90016 20.5947 9.86566 20.5518 9.83011C20.5105 9.79484 20.4691 9.75958 20.4266 9.72325C20.0324 9.45488 19.6622 9.45723 19.2011 9.4561C19.1316 9.45561 19.062 9.45512 18.9904 9.45461C18.8434 9.45387 18.6965 9.45352 18.5495 9.45355C18.326 9.45323 18.1025 9.45056 17.879 9.44777C17.7358 9.44734 17.5926 9.44704 17.4495 9.44691C17.3832 9.44585 17.317 9.44479 17.2487 9.4437C16.7007 9.44762 16.2159 9.58894 15.8639 10.0369ZM15.1735 16.478C14.7884 16.583 14.4028 16.686 14.0172 16.7891C13.0893 17.0375 12.1622 17.2886 11.2353 17.5407C10.4623 17.7509 9.68878 17.9588 8.91477 18.165C8.47602 18.2819 8.03745 18.3994 7.59891 18.5171C7.29555 18.5984 6.99211 18.6795 6.68846 18.7598C6.40333 18.8351 6.11844 18.9114 5.83371 18.9883C5.72887 19.0164 5.62394 19.0442 5.51892 19.0717C5.37487 19.1095 5.23114 19.1485 5.08743 19.1875C5.00683 19.209 4.92623 19.2305 4.84319 19.2526C4.60248 19.3441 4.44679 19.4513 4.26072 19.6291C4.09085 20.1412 4.18755 20.7071 4.18755 21.2469C13.5088 21.2469 22.8302 21.2469 32.4339 21.2469C32.5531 19.9779 32.5531 19.9779 32.2144 19.482C31.8595 19.2549 31.4615 19.1635 31.0583 19.0581C30.987 19.039 30.9156 19.0199 30.8421 19.0003C30.6054 18.9371 30.3686 18.8746 30.1317 18.8121C29.9645 18.7676 29.7972 18.7231 29.63 18.6785C29.184 18.5597 28.7379 18.4414 28.2917 18.3233C27.8334 18.2019 27.3753 18.0799 26.9171 17.958C26.3748 17.8137 25.8324 17.6694 25.29 17.5253C24.3201 17.2677 23.3506 17.0092 22.3818 16.7476C22.3321 16.7342 22.2825 16.7208 22.2314 16.707C21.8365 16.6004 21.4417 16.4935 21.0469 16.3865C20.8251 16.3263 20.6033 16.2664 20.3814 16.2064C20.3205 16.1898 20.2596 16.1732 20.1968 16.1561C18.3956 15.6697 16.9395 15.9941 15.1735 16.478Z" fill="#367CFF"/>
</svg>
