<svg width="36" height="36" viewBox="0 0 36 36" fill="none" xmlns="http://www.w3.org/2000/svg">
<path d="M6.2546 22.9497L13.0496 29.7447C15.8396 32.5347 20.3696 32.5347 23.1746 29.7447L29.7596 23.1597C32.5496 20.3697 32.5496 15.8397 29.7596 13.0347L22.9496 6.25471C21.5246 4.82971 19.5596 4.06471 17.5496 4.16971L10.0496 4.52971C7.04959 4.66471 4.66459 7.04971 4.51459 10.0347L4.15459 17.5347C4.06459 19.5597 4.8296 21.5247 6.2546 22.9497Z" stroke="#3280FF" stroke-width="1.5" stroke-linecap="round" stroke-linejoin="round"/>
<path d="M14.25 18C16.3211 18 18 16.3211 18 14.25C18 12.1789 16.3211 10.5 14.25 10.5C12.1789 10.5 10.5 12.1789 10.5 14.25C10.5 16.3211 12.1789 18 14.25 18Z" stroke="#3280FF" stroke-width="1.5" stroke-linecap="round"/>
</svg>
