<svg width="193" height="83" viewBox="0 0 193 83" fill="none" xmlns="http://www.w3.org/2000/svg">
<path d="M34.944 53.776V64H31.776C31.824 66.88 31.416 69.28 30.552 71.2C29.688 73.12 28.128 74.776 25.872 76.168C23.664 77.56 21.12 78.688 18.24 79.552C15.36 80.464 11.448 81.424 6.504 82.432L4.704 72.496C12.576 70.864 17.544 69.592 19.608 68.68C21.672 67.768 22.68 66.208 22.632 64H14.928C10.992 64 7.776 62.824 5.28 60.472C2.832 58.072 1.44 54.832 1.104 50.752C0.72 46.192 1.824 42.16 4.416 38.656C7.056 35.152 10.488 33.304 14.712 33.112C18.936 32.92 22.464 34.384 25.296 37.504C28.176 40.576 29.88 44.656 30.408 49.744L30.84 53.776H34.944ZM10.176 49.96C10.272 51.304 10.68 52.288 11.4 52.912C12.12 53.488 13.296 53.776 14.928 53.776H21.624L21.336 50.824C21.048 48.328 20.352 46.432 19.248 45.136C18.192 43.84 16.824 43.24 15.144 43.336C13.512 43.384 12.24 44.056 11.328 45.352C10.416 46.6 10.032 48.136 10.176 49.96ZM58.2332 6.904L40.6652 13.24L38.4332 7.048L56.0012 0.711995L58.2332 6.904ZM70.8332 53.776H71.8412V64H70.8332C66.8972 64 63.3692 62.44 60.2492 59.32C60.1052 59.464 60.0092 59.584 59.9612 59.68C57.8012 62.56 54.4412 64 49.8812 64H34.2572V53.776H50.0252C50.9852 53.776 51.6572 53.608 52.0412 53.272C53.2412 52.312 53.3372 51.088 52.3292 49.6L36.4892 27.136L38.5052 19.432L64.5692 9.856L67.8092 19.36L47.8652 26.704L59.2412 43.48C59.4812 43.816 59.7932 44.32 60.1772 44.992C62.2412 48.448 64.0172 50.776 65.5052 51.976C66.9932 53.176 68.7692 53.776 70.8332 53.776ZM71.1009 64V53.776H93.4209V64H71.1009ZM92.6869 64V53.776H115.007V64H92.6869ZM114.273 64V53.776H136.593V64H114.273ZM135.859 64V53.776H158.179V64H135.859ZM172.853 49.744C173.045 53.776 171.893 57.16 169.397 59.896C166.949 62.632 163.517 64 159.101 64H157.301V53.776H159.101C160.973 53.776 162.221 53.464 162.845 52.84C163.517 52.216 163.829 51.328 163.781 50.176L162.413 14.536L171.485 14.104L172.853 49.744ZM183.71 64.288L181.766 14.536L190.91 14.104L192.782 63.856L183.71 64.288Z" fill="url(#paint0_linear_7725_7412)"/>
<defs>
<linearGradient id="paint0_linear_7725_7412" x1="-3" y1="31.5" x2="235" y2="31.5" gradientUnits="userSpaceOnUse">
<stop offset="0.055" stop-color="#050505"/>
<stop offset="0.277617" stop-color="#050505"/>
<stop offset="0.445" stop-color="#6B6B6B"/>
</linearGradient>
</defs>
</svg>
