<svg width="32" height="32" viewBox="0 0 32 32" fill="none" xmlns="http://www.w3.org/2000/svg">
<path d="M29.3337 20.0003V12.0003C29.3337 5.33366 26.667 2.66699 20.0003 2.66699H12.0003C5.33366 2.66699 2.66699 5.33366 2.66699 12.0003V20.0003C2.66699 26.667 5.33366 29.3337 12.0003 29.3337H20.0003C26.667 29.3337 29.3337 26.667 29.3337 20.0003Z" stroke="#3280FF" stroke-width="1.5" stroke-linecap="round" stroke-linejoin="round"/>
<path d="M3.36035 9.48047H28.6404" stroke="#3280FF" stroke-width="1.5" stroke-linecap="round" stroke-linejoin="round"/>
<path d="M11.3604 2.81348V9.29348" stroke="#3280FF" stroke-width="1.5" stroke-linecap="round" stroke-linejoin="round"/>
<path d="M20.6396 2.81348V8.69348" stroke="#3280FF" stroke-width="1.5" stroke-linecap="round" stroke-linejoin="round"/>
<path d="M13 19.2671V17.6671C13 15.6138 14.4533 14.7738 16.2267 15.8005L17.6133 16.6005L19 17.4005C20.7733 18.4271 20.7733 20.1071 19 21.1338L17.6133 21.9338L16.2267 22.7338C14.4533 23.7605 13 22.9205 13 20.8671V19.2671V19.2671Z" stroke="#3280FF" stroke-width="1.5" stroke-miterlimit="10" stroke-linecap="round" stroke-linejoin="round"/>
</svg>
